<svg width="88" height="32" viewBox="0 0 88 32" fill="none" xmlns="http://www.w3.org/2000/svg">
<path d="M62.9063 23.1185H48.8341C49.4405 27.0616 56.2113 27.2352 60.6325 25.9456V26.0448L60.9609 25.8464L62.9063 29.5663C60.1272 30.8558 57.8787 31.327 55.5039 31.4758C54.847 31.5502 54.2154 31.5998 53.6596 31.5998C53.2806 31.5998 52.9017 31.575 52.5227 31.575C49.3394 31.4014 46.813 30.459 44.9687 28.7975C40.5475 24.8049 40.9265 16.8443 45.1708 12.8517C49.2889 8.93343 56.565 8.80944 60.8599 12.4053C62.8305 14.0668 64.0684 16.6708 64.0684 19.7954V20.4402C64.0684 21.5066 64.0179 23.1185 62.9063 23.1185ZM58.0808 18.5555C57.4745 15.654 55.1502 14.5628 53.2301 14.6868C51.0826 14.8108 48.9605 16.3732 48.6068 18.5555H58.0808Z" fill="#08CCC5"/>
<path d="M12.0496 0C13.7904 0 15.1984 1.34698 15.1984 2.98785C15.1984 4.62872 13.7904 5.95121 12.0496 5.95121C10.3087 5.95121 8.9007 4.62872 8.9007 2.98785C8.9007 1.34698 10.3087 0 12.0496 0Z" fill="#08CCC5"/>
<path d="M39.6336 31.1808V24.1818V19.0624C39.6336 10.1096 30.5492 8.00713 22.9696 10.9999C22.2132 10.4558 21.1544 10.1096 19.8939 10.1096H18.0535V13.9924V15.6494V18.7903V20.7441V24.1818V27.7926V29.1808C18.0535 30.2854 18.949 31.1808 20.0535 31.1808H22.3897H24.2553V24.1818V24.1571V19.4086C24.2553 13.0279 33.4319 12.9784 33.4319 19.8043V24.1818V27.7926V29.1808C33.4319 30.2854 34.3273 31.1808 35.4319 31.1808H37.9697H39.6336Z" fill="#08CCC5"/>
<path d="M87.9999 31.1808V19.0515C88.0093 10.2135 79.0637 7.98459 71.3336 10.9802C70.5776 10.4356 69.5193 10.089 68.2845 10.089H66.4197V13.9757V15.6343V18.7783V20.7339V27.7893V29.1808C66.4197 30.2854 67.3152 31.1808 68.4197 31.1808H70.7792H72.6188V24.175V24.1502V19.3971C72.644 13.0102 81.7914 12.9607 81.7914 19.7932V24.175V27.7893V29.1808C81.7914 30.2854 82.6868 31.1808 83.7914 31.1808H86.3273L87.9999 31.1808Z" fill="#08CCC5"/>
<path d="M13.1984 10.0583H8.9007V29.181C8.9007 30.2855 9.79612 31.181 10.9007 31.181H15.1984V12.0583C15.1984 10.9538 14.303 10.0583 13.1984 10.0583Z" fill="#08CCC5"/>
<path fill-rule="evenodd" clip-rule="evenodd" d="M0 0H4.12977C5.23433 0 6.12977 0.895431 6.12977 2V31.181H2C0.895433 31.181 0 30.2856 0 29.181V25.0911V0Z" fill="#08CCC5"/>
</svg>
